<!-- Copyright © 2026 the Kitchen Memory contributors. SPDX-License-Identifier: GPL-3.0-only -->
<svg xmlns="http://www.w3.org/2000/svg" width="1024" height="1024" viewBox="0 0 1024 1024">
  <rect width="1024" height="1024" rx="224" fill="#171310"/>
  <rect x="242" y="210" width="540" height="540" rx="48" fill="#5D493E"/>
  <rect x="206" y="258" width="612" height="520" rx="50" fill="#8A7062"/>
  <rect x="170" y="314" width="684" height="490" rx="54" fill="#E8D9CB"/>
  <circle cx="248" cy="421" r="22" fill="#A64B2A"/>
  <rect x="296" y="401" width="340" height="40" rx="20" fill="#A64B2A"/>
  <rect x="224" y="487" width="464" height="34" rx="17" fill="#A64B2A"/>
  <path fill="#745143" d="M110 650c0-29 23-52 52-52h700c29 0 52 23 52 52v154c0 39-31 70-70 70H180c-39 0-70-31-70-70V650Z"/>

</svg>
